<svg width="190" height="285" viewBox="0 0 190 285" fill="none" xmlns="http://www.w3.org/2000/svg">
<path d="M95 142.5C95 129.902 100.004 117.82 108.912 108.912C117.82 100.004 129.902 95 142.5 95C155.098 95 167.18 100.004 176.088 108.912C184.996 117.82 190 129.902 190 142.5C190 155.098 184.996 167.18 176.088 176.088C167.18 184.996 155.098 190 142.5 190C129.902 190 117.82 184.996 108.912 176.088C100.004 167.18 95 155.098 95 142.5V142.5Z" fill="#1ABCFE"/>
<path d="M0 237.5C0 224.902 5.00445 212.82 13.9124 203.912C22.8204 195.004 34.9022 190 47.5 190H95V237.5C95 250.098 89.9955 262.18 81.0876 271.088C72.1796 279.996 60.0978 285 47.5 285C34.9022 285 22.8204 279.996 13.9124 271.088C5.00445 262.18 0 250.098 0 237.5H0Z" fill="#0ACF83"/>
<path d="M95 0V95H142.5C155.098 95 167.18 89.9955 176.088 81.0876C184.996 72.1796 190 60.0978 190 47.5C190 34.9022 184.996 22.8204 176.088 13.9124C167.18 5.00445 155.098 0 142.5 0L95 0Z" fill="#FF7262"/>
<path d="M0 47.5C0 60.0978 5.00445 72.1796 13.9124 81.0876C22.8204 89.9955 34.9022 95 47.5 95H95V0H47.5C34.9022 0 22.8204 5.00445 13.9124 13.9124C5.00445 22.8204 0 34.9022 0 47.5H0Z" fill="#F24E1E"/>
<path d="M0 142.5C0 155.098 5.00445 167.18 13.9124 176.088C22.8204 184.996 34.9022 190 47.5 190H95V95H47.5C34.9022 95 22.8204 100.004 13.9124 108.912C5.00445 117.82 0 129.902 0 142.5H0Z" fill="#A259FF"/>
</svg>
