<svg width="448" height="448" viewBox="0 0 448 448" fill="none" xmlns="http://www.w3.org/2000/svg">
<path d="M400 0H48C21.5 0 0 21.5 0 48V400C0 426.5 21.5 448 48 448H400C426.5 448 448 426.5 448 400V48C448 21.5 426.5 0 400 0Z" fill="#C7B300"/>
<path d="M180.9 412.9C218.2 412.9 243.8 393 243.8 349.4V205.7H201.7V348.8C201.7 369.9 192.9 375.3 179.1 375.3C164.6 375.3 158.6 365.4 152 353.7L117.7 374.4C127.7 395.5 147.2 412.9 180.9 412.9Z" fill="black"/>
<path d="M266.7 369.9C279 394.3 304.3 412.9 343.4 412.9C383.3 412.9 413.1 392.1 413.1 354.3C413.1 319.1 393 303.4 357.2 288.1L346.7 283.6C328.6 275.7 320.8 270.6 320.8 258C320.8 247.8 328.6 240 340.9 240C353 240 360.8 245.1 368 258L400.8 237C387 212.6 367.8 203.3 341 203.3C303.5 203.3 279.4 227.3 279.4 258.9C279.4 293.2 299.5 309.5 329.9 322.4L340.4 326.9C359.7 335.4 371.1 340.5 371.1 354.9C371.1 367 359.9 375.7 342.5 375.7C321.8 375.7 310 364.8 301 350.1L266.7 369.9Z" fill="black"/>
</svg>
