<svg width="450" height="450" viewBox="0 0 450 450" fill="none" xmlns="http://www.w3.org/2000/svg">
<path d="M401.786 0H48.2143C21.596 0 0 21.596 0 48.2143V401.786C0 428.404 21.596 450 48.2143 450H401.786C428.404 450 450 428.404 450 401.786V48.2143C450 21.596 428.404 0 401.786 0Z" fill="#0077B5"/>
<path d="M128.344 400H55.7813V166.323H128.344V400ZM92.0234 134.447C68.8203 134.447 50 115.228 50 92.0244C50 80.8788 54.4275 70.1898 62.3084 62.3087C70.1893 54.4276 80.8781 50 92.0234 50C103.169 50 113.858 54.4276 121.738 62.3087C129.619 70.1898 134.047 80.8788 134.047 92.0244C134.047 115.228 115.219 134.447 92.0234 134.447ZM399.922 400H327.516V286.247C327.516 259.137 326.969 224.371 289.789 224.371C252.062 224.371 246.281 253.825 246.281 284.294V400H173.797V166.323H243.391V198.199H244.406C254.094 179.839 277.758 160.463 313.063 160.463C386.5 160.463 400 208.824 400 271.638V400H399.922Z" fill="white"/>
</svg>
