<svg width="449" height="449" viewBox="0 0 449 449" fill="none" xmlns="http://www.w3.org/2000/svg">
<path d="M439.801 168.501C432.101 137.601 417.501 114.301 386.401 114.301H346.301V161.701C346.301 198.501 315.101 229.501 279.501 229.501H172.701C143.501 229.501 119.301 254.501 119.301 283.801V385.601C119.301 414.601 144.501 431.601 172.701 439.901C206.501 449.801 239.001 451.601 279.501 439.901C306.401 432.101 332.901 416.401 332.901 385.601V344.901H226.201V331.301H386.401C417.501 331.301 429.001 309.601 439.801 277.101C451.001 243.601 450.501 211.401 439.801 168.501ZM286.201 372.001C297.301 372.001 306.301 381.101 306.301 392.301C306.301 403.601 297.301 412.701 286.201 412.701C275.201 412.701 266.101 403.501 266.101 392.301C266.201 381.001 275.201 372.001 286.201 372.001Z" fill="#FAF006"/>
<path d="M167.801 216.101H274.601C304.301 216.101 328.001 191.601 328.001 161.801V59.9013C328.001 30.9013 303.601 9.20129 274.601 4.30129C238.801 -1.59871 199.901 -1.29871 167.801 4.40129C122.601 12.4013 114.401 29.1013 114.401 60.0013V100.701H221.301V114.301H74.3008C43.2008 114.301 16.0007 133.001 7.50075 168.501C-2.29925 209.201 -2.69925 234.601 7.50075 277.101C15.1007 308.701 33.2008 331.301 64.3008 331.301H101.001V282.501C101.001 247.201 131.501 216.101 167.801 216.101ZM161.101 73.5013C150.001 73.5013 141.001 64.4013 141.001 53.2013C141.101 41.9013 150.001 32.8013 161.101 32.8013C172.101 32.8013 181.201 42.0013 181.201 53.2013C181.201 64.4013 172.201 73.5013 161.101 73.5013Z" fill="#094093"/>
</svg>
