<svg width="500" height="300" viewBox="0 0 500 300" fill="none" xmlns="http://www.w3.org/2000/svg">
<path d="M244.553 0.0984341C156.59 2.892 130.447 65.6789 124.455 99.6936C132.262 87.0853 156.863 59.4207 193.083 59.4207C235.294 59.4207 267.429 106.497 287.037 121.192C310.859 139.044 358.727 162.616 421.569 143.505C471.678 128.267 494.917 75.1121 500 49.896C475.763 82.8223 438.998 102.599 393.519 79.2848C362.2 63.2298 338.78 -2.89432 244.553 0.0984341ZM120.098 149.491C32.1351 152.285 5.99129 215.072 0 249.086C7.80681 236.478 32.4074 208.814 68.6274 208.814C110.839 208.814 142.974 255.89 162.582 270.584C186.404 288.437 234.272 312.009 297.113 292.898C347.222 277.659 370.461 224.505 375.545 199.289C351.307 232.215 314.542 251.992 269.063 228.678C237.745 212.623 214.325 146.499 120.098 149.491Z" fill="#07B6D5"/>
</svg>
