<svg width="512" height="512" viewBox="0 0 512 512" fill="none" xmlns="http://www.w3.org/2000/svg">
<path d="M462 0H50C22.3858 0 0 22.3858 0 50V462C0 489.614 22.3858 512 50 512H462C489.614 512 512 489.614 512 462V50C512 22.3858 489.614 0 462 0Z" fill="#3178C6"/>
<path d="M326 399.56V449.56C334.1 453.76 344 456.86 355 458.96C366 461.06 378 462.06 390 462.06C402 462.06 413 460.96 424 458.66C435 456.36 444 452.56 452 447.66C460.1 442.36 467 435.66 471 426.66C475 417.66 478.1 407.66 478.1 394.66C478.1 385.56 476.7 377.66 474 370.66C471.3 363.66 467.4 357.66 462 352.66C456.9 347.36 451 342.66 444 338.66C437 334.66 429 330.46 420 326.66C413.4 323.96 408 321.36 402 318.76C396.8 316.16 392.3 313.56 389 310.96C385.3 308.26 382.5 305.46 380.5 302.56C378.5 299.56 377.5 296.26 377.5 292.56C377.5 289.16 378.39 286.06 380.2 283.26C382.01 280.46 384.5 278.16 387.7 276.16C390.9 274.16 394.9 272.66 399.7 271.56C404.4 270.46 409.6 269.96 415.7 269.96C419.9 269.96 424.3 270.27 428.7 270.9C433.3 271.53 438 272.5 442.7 273.8C447.4 275.1 452 276.7 456.7 278.7C461.1 280.7 465.2 283 468.7 285.6V238.6C461.1 235.7 452.7 233.5 443.7 232.1C434.7 230.7 424.7 230 412.7 230C400.7 230 389.7 231.3 378.7 233.8C367.7 236.3 358.7 240.3 350.7 245.8C342.6 251.2 336.7 257.8 331.7 266.8C327 275.2 324.7 284.8 324.7 296.8C324.7 311.8 329 324.8 337.7 334.8C346.3 345.8 359.7 353.8 376.7 361.8C383.6 364.6 389.7 367.4 395.7 370.1C401.7 372.8 406.7 375.6 410.7 378.5C415 381.4 418.4 384.6 420.7 388C423.2 391.4 424.5 395.4 424.5 400C424.5 403.2 423.72 406.2 422.2 409C420.68 411.8 418.3 414.2 415.1 416.2C411.9 418.2 408 419.8 403.1 421C398.4 422.1 393.1 422.7 386.1 422.7C375.1 422.7 364.1 420.8 354.1 417C343.1 413.2 333.1 407.5 324.1 400L326 399.56ZM242 276.56H306V235.56H127V276.56H191V459.56H242V276.56Z" fill="white"/>
</svg>
