<svg width="398" height="450" viewBox="0 0 398 450" fill="none" xmlns="http://www.w3.org/2000/svg">
<path d="M198.847 0L397.694 112.481V337.519L198.847 450L0 337.519V112.481L198.847 0Z" fill="white"/>
<path d="M362.202 329.715L205.45 418.484V349.45L303.148 295.648L362.202 329.715ZM372.932 320.035V134.542L315.604 167.634V286.944L372.932 320.035ZM34.892 329.715L191.643 418.409V349.375L93.9458 295.648L34.892 329.715ZM24.1618 320.035V134.542L81.4898 167.634V286.944L24.1618 320.035ZM30.8401 122.536L191.643 31.5908V98.3742L88.6182 155.028L87.7928 155.478L30.8401 122.536ZM366.179 122.536L205.45 31.5908V98.3742L308.4 155.103L309.226 155.553L366.179 122.536Z" fill="#8ED6FB"/>
<path d="M191.643 333.692L95.2964 280.64V175.663L191.643 231.266V333.692ZM205.45 333.692L301.797 280.715V175.663L205.45 231.266V333.692ZM101.75 163.507L198.547 110.305L295.269 163.507L198.547 219.335L101.75 163.507Z" fill="#1C78C0"/>
</svg>
